<svg width="34" height="34" viewBox="0 0 34 34" fill="none" xmlns="http://www.w3.org/2000/svg">
<g clip-path="url(#clip0_111_119)">
<path d="M26.9165 19.8333V8.49999C26.9165 6.94166 25.6415 5.66666 24.0832 5.66666H4.24984C2.6915 5.66666 1.4165 6.94166 1.4165 8.49999V19.8333C1.4165 21.3917 2.6915 22.6667 4.24984 22.6667H24.0832C25.6415 22.6667 26.9165 21.3917 26.9165 19.8333ZM14.1665 18.4167C11.8148 18.4167 9.9165 16.5183 9.9165 14.1667C9.9165 11.815 11.8148 9.91666 14.1665 9.91666C16.5182 9.91666 18.4165 11.815 18.4165 14.1667C18.4165 16.5183 16.5182 18.4167 14.1665 18.4167ZM32.5832 9.91666V25.5C32.5832 27.0583 31.3082 28.3333 29.7498 28.3333H5.6665V25.5H29.7498V9.91666H32.5832Z" fill="#727876"/>
</g>
<defs>
<clipPath id="clip0_111_119">
<rect width="34" height="34" fill="white"/>
</clipPath>
</defs>
</svg>
