<svg width="12" height="22" viewBox="0 0 12 22" fill="none" xmlns="http://www.w3.org/2000/svg">
<path d="M10.3636 5V16.5C10.3636 18.71 8.41091 20.5 6 20.5C3.58909 20.5 1.63636 18.71 1.63636 16.5V4C1.63636 2.62 2.85818 1.5 4.36364 1.5C5.86909 1.5 7.09091 2.62 7.09091 4V14.5C7.09091 15.05 6.6 15.5 6 15.5C5.4 15.5 4.90909 15.05 4.90909 14.5V5H3.27273V14.5C3.27273 15.88 4.49455 17 6 17C7.50545 17 8.72727 15.88 8.72727 14.5V4C8.72727 1.79 6.77455 0 4.36364 0C1.95273 0 0 1.79 0 4V16.5C0 19.54 2.68364 22 6 22C9.31636 22 12 19.54 12 16.5V5H10.3636Z" fill="white"/>
</svg>
