<svg width="25" height="25" viewBox="0 0 25 25" fill="none" xmlns="http://www.w3.org/2000/svg">
<path d="M19.4444 0H2.77778C1.23611 0 0 1.25 0 2.77778V22.2222C0 23.75 1.23611 25 2.77778 25H22.2222C23.75 25 25 23.75 25 22.2222V5.55556L19.4444 0ZM12.5 22.2222C10.1944 22.2222 8.33333 20.3611 8.33333 18.0556C8.33333 15.75 10.1944 13.8889 12.5 13.8889C14.8056 13.8889 16.6667 15.75 16.6667 18.0556C16.6667 20.3611 14.8056 22.2222 12.5 22.2222ZM16.6667 8.33333H2.77778V2.77778H16.6667V8.33333Z" fill="white"/>
</svg>
